<svg id="Capa_1" enable-background="new 0 0 512 512" height="512" viewBox="0 0 512 512" width="512" xmlns="http://www.w3.org/2000/svg"><g><path  fill="#fff" d="m276.261 162.319c-2.876-1.017-5.813-2.077-8.747-3.177v-49.783c6.509 1.776 9.824 5.055 10.055 5.292 4.542 5.155 12.403 5.682 17.59 1.161 5.206-4.535 5.749-12.431 1.214-17.636-4.731-5.429-14.691-12.276-28.859-14.34v-8.836c0-6.903-5.597-12.5-12.5-12.5s-12.5 5.597-12.5 12.5v10.287c-1.296.319-2.603.663-3.936 1.064-16.292 4.907-28.463 18.834-31.763 36.345-3.018 16.014 2.145 31.481 13.474 40.368 5.695 4.467 12.707 8.559 22.225 12.851v63.491c-7.747-.768-13.05-2.956-21.772-8.662-5.776-3.78-13.524-2.16-17.303 3.618-3.779 5.777-2.16 13.524 3.618 17.304 13.85 9.06 23.451 11.983 35.458 12.816v10.518c0 6.903 5.597 12.5 12.5 12.5s12.5-5.597 12.5-12.5v-11.63c9.319-2.089 17.782-6.49 24.904-13.034 9.172-8.428 15.363-19.847 17.432-32.152 4.24-25.226-8.945-47.154-33.59-55.865zm-33.747-14.413c-2.517-1.459-4.818-2.962-6.796-4.514-3.897-3.056-5.599-9.363-4.335-16.066 1.062-5.638 4.534-12.309 11.131-15.708zm42.682 66.133c-1.521 9.049-7.524 18.629-17.682 23.12v-51.417c.14.05.275.098.415.148 19.268 6.81 18.088 23.267 17.267 28.149z"/><path  fill="#fff"  d="m256 0c-90.981 0-165 74.019-165 165 0 41.266 15.369 80.763 43.276 111.216 17.233 18.805 26.724 43.628 26.724 69.894v8.89c0 13.934 8.186 25.988 20 31.616v33.384h-5c-8.284 0-15 6.716-15 15s6.716 15 15 15h5v17c0 24.813 20.187 45 45 45h60c24.813 0 45-20.187 45-45v-17h5c8.284 0 15-6.716 15-15s-6.716-15-15-15h-5v-33.384c11.814-5.628 20-17.682 20-31.616v-8.89c0-26.267 9.491-51.089 26.724-69.895 27.907-30.452 43.276-69.949 43.276-111.215 0-90.981-74.019-165-165-165zm45 467c0 8.271-6.729 15-15 15h-60c-8.271 0-15-6.729-15-15v-17h90zm0-47h-90v-30h90zm54.606-164.052c-22.316 24.353-34.606 56.372-34.606 90.162v8.89c0 2.757-2.243 5-5 5h-120c-2.757 0-5-2.243-5-5v-8.89c0-33.79-12.29-65.81-34.606-90.162-22.824-24.907-35.394-57.206-35.394-90.948 0-74.439 60.561-135 135-135s135 60.561 135 135c0 33.742-12.57 66.041-35.394 90.948z"/><path  fill="#fff"  d="m496 150h-30c-8.284 0-15 6.716-15 15 0 8.284 6.716 15 15 15h30c8.284 0 15-6.716 15-15 0-8.284-6.716-15-15-15z"/><path  fill="#fff"  d="m46 180c8.284 0 15-6.716 15-15 0-8.284-6.716-15-15-15h-30c-8.284 0-15 6.716-15 15 0 8.284 6.716 15 15 15z"/><path  fill="#fff"  d="m458.466 107.271 28.191-10.261c7.785-2.833 11.798-11.441 8.965-19.226s-11.441-11.798-19.226-8.965l-28.191 10.261c-7.785 2.833-11.798 11.441-8.965 19.226 2.834 7.785 11.441 11.798 19.226 8.965z"/><path  fill="#fff"  d="m53.534 222.729-28.191 10.261c-7.785 2.833-11.798 11.441-8.965 19.226 2.833 7.785 11.441 11.798 19.226 8.965l28.191-10.261c7.785-2.833 11.798-11.441 8.965-19.226-2.834-7.785-11.441-11.798-19.226-8.965z"/><path  fill="#fff"  d="m486.657 232.99-28.191-10.261c-7.785-2.833-16.392 1.18-19.226 8.965-2.833 7.785 1.18 16.392 8.965 19.226l28.191 10.261c7.785 2.833 16.392-1.18 19.226-8.965 2.833-7.785-1.181-16.393-8.965-19.226z"/><path  fill="#fff"  d="m63.795 79.081-28.191-10.261c-7.785-2.833-16.392 1.18-19.226 8.965-2.833 7.785 1.18 16.392 8.965 19.226l28.191 10.261c7.785 2.833 16.392-1.18 19.226-8.965 2.833-7.785-1.181-16.393-8.965-19.226z"/></g></svg>