<svg xmlns="http://www.w3.org/2000/svg" viewBox="0 0 473 87"><g fill="#FF6300" fill-rule="nonzero"><path d="M257.73 14.56h6.17l13.68 52.87h.16l14.74-52.87h7.17l14.8 52.87h.16l13.76-52.87h5.74l-16.65 60.4h-6.06L296.1 20.9h-.17l-15.22 54.06h-6.24zM335.82 44.67c.5-10.23 7.68-14.62 17.66-14.62 7.68 0 16.05 2.36 16.05 14.04v23.18a2.83 2.83 0 0 0 3.13 3.22 5.03 5.03 0 0 0 1.7-.34v4.49c-1.13.25-2.3.36-3.45.34-5.42 0-6.25-3.03-6.25-7.6h-.16c-3.72 5.66-7.52 8.88-15.89 8.88-8.08 0-14.61-4.05-14.61-12.77 0-12.26 11.9-12.69 23.4-14.04 4.39-.5 6.86-1.1 6.86-5.93 0-7.18-5.16-8.96-11.4-8.96-6.6 0-11.5 3.03-11.67 10.11h-5.37zm28.3 6.44h-.17c-.66 1.27-3.03 1.7-4.49 2.02-9.03 1.6-20.2 1.52-20.2 10.12 0 5.32 4.72 8.62 9.71 8.62 8.09 0 15.3-5.16 15.22-13.7l-.08-7.06zM380.26 14.56h5.32v60.4h-5.32zM395.91 14.56h5.31v60.4h-5.3zM414.59 54.63c0 7.79 4.04 17.18 14.37 17.18 7.78 0 12-4.58 13.68-11.17h5.32c-2.29 9.9-8.09 15.64-19.02 15.64-13.87 0-19.7-10.67-19.7-23.09 0-11.51 5.83-23.08 19.7-23.08 13.86 0 19.6 12.26 19.18 24.52h-33.53zm28.3-4.5c-.25-8.09-5.24-15.55-13.87-15.55-8.63 0-13.53 7.6-14.37 15.56h28.23zM463.76 31.32h8.88v4.5h-8.88v29.41c0 3.46.5 5.5 4.3 5.75 1.53 0 3.06-.1 4.58-.27v4.58c-1.6 0-3.14.16-4.73.16-7.1 0-9.54-2.37-9.46-9.82V35.8h-7.68v-4.47h7.6V18.21h5.31l.08 13.11zM42.63 34.4V13.1c0-.69.12-1.35-.97-1.35H27.83c-.74 0-1.07.32-1.03 1.05.04.73 0 .89 0 1.33v39.8a5.54 5.54 0 0 1-4.65 6.07 5.48 5.48 0 0 1-6.24-4.41c-.24-.97-.65-.97-1.36-.97H1.4c-1.18 0-1.42.4-1.38 1.5C.5 68.14 12.7 77.8 24.66 75.59a21.26 21.26 0 0 0 17.97-21.55V34.4zM120.06 62.58c-2.02.14-3.92.4-5.78.34-1.86-.06-2.85-.97-2.87-3.07V42.77c0-.93.3-1.3 1.24-1.27h6.3c.81 0 1.14-.23 1.11-1.08v-9.8c0-.84-.28-1.1-1.09-1.08h-6.32c-.91 0-1.24-.28-1.24-1.21V18.09c0-.97-.28-1.34-1.29-1.34H99.77c-1.13 0-1.45.4-1.43 1.5v9.81c0 1.07-.29 1.6-1.44 1.48h-2.42a1.21 1.21 0 0 0-1.36 1.4v7.12c0 3.42 0 3.42 3.36 3.44 1.84 0 1.84 0 1.84 1.86 0 6.45 0 12.93.12 19.38a11.61 11.61 0 0 0 7.33 10.97 18.4 18.4 0 0 0 13.26.28c.68-.15 1.13-.8 1.01-1.5v-9.91h.02zM214.7 74.66h-11.4c-2.02 0-2.02 0-2.02-2.03V48.56c.01-.76-.05-1.52-.18-2.27-.77-4.04-2.71-5.68-6.7-5.72a6.57 6.57 0 0 0-6.93 5.64c-.2 1.1-.31 2.22-.32 3.34v23.53c0 1.15-.26 1.58-1.47 1.56h-10.23c-1.01 0-1.42-.24-1.42-1.34V30.94c0-1 .29-1.34 1.3-1.32h9.94c1.21 0 1.78.28 1.58 1.56.01.29.06.57.14.85.5-.33.9-.55 1.3-.81A16.42 16.42 0 0 1 214 42.49c.15.9.39 1.8.59 2.71l.1 29.46zM60.52 56.29a9.51 9.51 0 0 0 3.31 5.54 10.46 10.46 0 0 0 12.4.47c.32-.2.69-.32 1.06-.35.28.02.54.09.8.2l10.87 3.06c-1.5 2.8-3.67 5.2-6.3 6.96-11.3 7.65-31.7 3.72-35.02-15.52a24.03 24.03 0 0 1 4.93-20.43c4.5-5.7 11.61-8.7 18.82-7.9 4.97.23 9.7 2.23 13.32 5.65 3.78 3.78 6.01 8.83 6.27 14.16.14 2.02.14 4.05 0 6.07 0 1.84-.47 2.15-2.27 2.15h-28.3l.1-.06zM77.56 45.8c-.5-3.73-4.05-6.07-8.47-6.07-4.04.12-7.58 2.83-7.9 6.07h16.37zM146.5 75.77c-13.44 0-23.38-10.12-23.3-23.91a23.27 23.27 0 1 1 46.49.14 22.71 22.71 0 0 1-23.19 23.77zm10.11-23.85c-.14-1.2-.2-2.41-.45-3.58a9.69 9.69 0 0 0-8.73-7.87 9.54 9.54 0 0 0-10.1 6.06c-1.16 2.86-1.39 6-.65 8.99a9.87 9.87 0 0 0 16.17 5.76c2.6-2.39 4-5.83 3.78-9.36h-.02z"/><path d="M42.63 34.4v19.5a21.36 21.36 0 0 1-42.6 2.16c0-1.09.2-1.51 1.37-1.5 4.38.07 8.73.07 13.15.07.71 0 1.12.12 1.34.93a5.48 5.48 0 0 0 6.24 4.4 5.54 5.54 0 0 0 4.65-6.06V12.77a1.01 1.01 0 0 1 1.03-1.06h13.83c1.1 0 .97.67.97 1.36V34.4h.02zM120.06 62.58v9.93c.12.7-.33 1.35-1 1.5a18.4 18.4 0 0 1-13.27-.28 11.61 11.61 0 0 1-7.31-11c-.22-6.46 0-12.94-.12-19.4 0-1.85 0-1.85-1.84-1.85-3.36 0-3.36 0-3.36-3.44v-7.12c0-1.02.26-1.52 1.36-1.4.8.06 1.61.06 2.42 0 1.15.12 1.46-.4 1.44-1.48v-9.83c0-1.1.3-1.52 1.43-1.5h10.35c1.01 0 1.3.37 1.3 1.34v10.28c0 .93.32 1.23 1.23 1.21H119c.81 0 1.12.24 1.1 1.07v9.86c0 .84-.3 1.09-1.12 1.07h-6.3c-.93 0-1.24.34-1.24 1.27V59.9c0 2.02.8 3.01 2.87 3.07 1.92-.02 3.84-.15 5.74-.38zM236.39 0h4.33v86.78h-4.33z"/></g></svg>