<svg id="Capa_1" enable-background="new 0 0 512.015 512.015" height="512" viewBox="0 0 512.015 512.015" width="512" xmlns="http://www.w3.org/2000/svg"><g><path  fill="#2782F9" d="m367.988 0c-78.851 0-143 65.149-143 144s64.149 143 143 143 144-64.149 144-143-65.149-144-144-144zm15.02 209.015v3.135c0 8.284-6.716 15-15 15s-15-6.716-15-15v-1.439c-6.911-1.212-13.225-3.798-21.202-9.017-6.933-4.535-8.876-13.832-4.341-20.764 4.535-6.933 13.832-8.876 20.764-4.341 7.312 4.784 9.681 5.157 19.677 5.087 9.65-.064 13.495-7.639 14.246-12.104.674-4.009-.083-9.339-7.517-11.966-12.454-4.403-25.225-9.455-34.272-16.551-20.601-16.158-14.382-53.062 12.646-62.883v-2.172c0-8.284 6.716-15 15-15s15 6.716 15 15v.832c7.391 2.086 13.343 5.858 17.432 10.017 5.809 5.907 5.729 15.404-.177 21.212-5.904 5.806-15.394 5.729-21.202-.167-.837-.817-5.458-4.67-15.462-1.657-3.994 1.203-5.067 5.345-5.301 6.585-.488 2.59.207 4.336.579 4.628 5.658 4.438 16.195 8.491 25.756 11.872 39.534 13.973 34.718 66.554-1.626 79.693z"/><path  fill="#2782F9" d="m169.201 461 22.787-23.787-117.213-117.213-50.511 49.511c-32.316 32.315-32.316 85.897 0 118.213 32.362 32.363 85.802 32.412 118.213 0l5.511-5.511 25.394 25.394c5.857 5.857 15.355 5.858 21.213 0s5.858-15.355 0-21.213z"/><path  fill="#2782F9" d="m322.594 365.394-176-176c-7.871-7.871-21.312-4.711-24.837 5.863l-32.325 96.975 130.324 130.324 96.975-32.325c10.558-3.52 13.746-16.956 5.863-24.837z"/></g></svg>