<svg version="1" xmlns="http://www.w3.org/2000/svg" viewBox="0 0 195.15 141.73"><path d="M39.62 141.27v-9.39c0-3.53-2.25-5.9-5.88-5.94a5.8 5.8 0 0 0-5.26 2.66 5.5 5.5 0 0 0-4.94-2.66c-1.6 0-3.16.47-4.38 2.22v-1.84h-3.25v14.95h3.28v-8.3c0-2.59 1.44-3.97 3.66-3.97 2.16 0 3.25 1.41 3.25 3.94v8.32h3.29v-8.29c0-2.59 1.5-3.97 3.66-3.97 2.22 0 3.28 1.41 3.28 3.94v8.32h3.28zm48.6-14.96H82.9v-4.53h-3.28v4.54h-3.03v2.97h3.03v6.82c0 3.47 1.34 5.53 5.2 5.53 1.4 0 3.03-.44 4.06-1.16l-.94-2.78a6 6 0 0 1-2.88.84c-1.62 0-2.15-1-2.15-2.5v-6.75h5.31v-2.97zm27.75-.37a4.4 4.4 0 0 0-3.95 2.19v-1.81h-3.22v14.95h3.26v-8.39c0-2.47 1.06-3.84 3.19-3.84.65 0 1.34.09 2.03.37l1-3.07a7 7 0 0 0-2.31-.4zm-41.95 1.56a11.18 11.18 0 0 0-6.1-1.56c-3.78 0-6.22 1.81-6.22 4.79 0 2.44 1.81 3.94 5.16 4.4l1.53.22c1.78.25 2.63.72 2.63 1.57 0 1.15-1.2 1.81-3.41 1.81a7.96 7.96 0 0 1-4.97-1.56l-1.54 2.53a10.78 10.78 0 0 0 6.48 1.94c4.32 0 6.82-2.03 6.82-4.88 0-2.63-1.97-4-5.23-4.47l-1.53-.22c-1.4-.19-2.53-.47-2.53-1.47 0-1.1 1.06-1.75 2.84-1.75 1.91 0 3.76.72 4.66 1.28l1.41-2.63zm87.14-1.56a4.4 4.4 0 0 0-3.94 2.19v-1.81H154v14.95h3.25v-8.39c0-2.47 1.06-3.84 3.19-3.84.66 0 1.34.09 2.03.37l1-3.07a7 7 0 0 0-2.31-.4zm-41.91 7.85c0 4.54 3.16 7.85 7.97 7.85 2.26 0 3.76-.5 5.38-1.78l-1.56-2.63a6.57 6.57 0 0 1-3.91 1.35c-2.6-.04-4.5-1.91-4.5-4.79s1.9-4.75 4.5-4.79c1.4 0 2.69.47 3.9 1.35l1.57-2.63a7.83 7.83 0 0 0-5.38-1.78c-4.81 0-7.97 3.32-7.97 7.85zm30.46 0v-7.47h-3.25v1.8a5.67 5.67 0 0 0-4.72-2.18c-4.2 0-7.48 3.28-7.48 7.85s3.29 7.85 7.48 7.85c2.12 0 3.69-.84 4.72-2.19v1.81h3.25v-7.47zm-12.1 0c0-2.62 1.72-4.78 4.53-4.78 2.7 0 4.5 2.06 4.5 4.78s-1.8 4.79-4.5 4.79c-2.81 0-4.53-2.16-4.53-4.79zm-39.25-7.85c-4.38 0-7.45 3.2-7.45 7.85 0 4.75 3.2 7.85 7.66 7.85 2.26 0 4.32-.56 6.14-2.1l-1.6-2.4a7.13 7.13 0 0 1-4.35 1.56c-2.1 0-4-.97-4.47-3.66h11.1c.03-.4.06-.81.06-1.25-.03-4.66-2.9-7.85-7.1-7.85zm-.07 2.9c2.1 0 3.44 1.32 3.79 3.64h-7.76c.35-2.16 1.66-3.63 3.97-3.63zm81.6 4.95v-13.48h-3.25v7.82a5.67 5.67 0 0 0-4.72-2.19c-4.2 0-7.48 3.28-7.48 7.85s3.29 7.85 7.48 7.85c2.13 0 3.69-.84 4.72-2.19v1.82h3.26v-7.48zm-12.1 0c0-2.62 1.72-4.78 4.54-4.78 2.69 0 4.5 2.06 4.5 4.78s-1.81 4.79-4.5 4.79c-2.82 0-4.54-2.16-4.54-4.79zm-109.84 0v-7.47h-3.26v1.8a5.67 5.67 0 0 0-4.72-2.18c-4.2 0-7.47 3.28-7.47 7.85s3.28 7.85 7.47 7.85c2.13 0 3.7-.84 4.72-2.19v1.81h3.26v-7.47zm-12.1 0c0-2.62 1.71-4.78 4.53-4.78 2.69 0 4.5 2.06 4.5 4.78s-1.81 4.79-4.5 4.79c-2.82 0-4.54-2.16-4.54-4.79zm139.47 5.31a1.5 1.5 0 0 1 1.07.44 1.5 1.5 0 0 1 .44 1.04 1.51 1.51 0 0 1-1.51 1.49 1.5 1.5 0 0 1-1.09-.44c-.13-.14-.24-.3-.32-.47a1.43 1.43 0 0 1 0-1.15 1.5 1.5 0 0 1 1.4-.91zm0 2.64a1.13 1.13 0 0 0 .81-.34 1.15 1.15 0 0 0 .34-.81 1.16 1.16 0 0 0-.7-1.07 1.18 1.18 0 0 0-1.28.25 1.15 1.15 0 0 0-.33.81 1.16 1.16 0 0 0 .7 1.07c.14.06.3.1.46.1zm.09-1.85c.17 0 .3.04.4.12.1.08.15.18.15.32 0 .12-.04.21-.12.28a.54.54 0 0 1-.32.14l.45.52h-.35l-.42-.51h-.14v.51h-.3v-1.38h.65zm-.35.26v.37h.34c.08 0 .14-.02.19-.05.04-.03.07-.08.07-.14 0-.06-.03-.1-.07-.14a.34.34 0 0 0-.19-.04h-.34z"/><path fill="#FF5F00" d="M72.94 12.38h49.27v88.54H72.94z"/><path fill="#EB001B" d="M76.07 56.65a56.21 56.21 0 0 1 21.5-44.27 56.3 56.3 0 1 0 0 88.54 56.2 56.2 0 0 1-21.5-44.28z"/><path fill="#F79E1B" d="M188.67 56.65a56.3 56.3 0 0 1-91.1 44.26c13.1-10.3 21.5-26.3 21.5-44.27s-8.4-33.95-21.5-44.26a56.3 56.3 0 0 1 91.1 44.27zm-5.37 34.89v-1.82h.73v-.36h-1.86v.36h.73v1.82h.4zm3.62 0v-2.19h-.57l-.66 1.5-.66-1.5h-.57v2.19h.4v-1.65l.62 1.42h.42l.61-1.43v1.66h.4z"/></svg>