<svg xmlns="http://www.w3.org/2000/svg" viewBox="0 0 300 51.8"><path d="M294.5 4c-3.8-2.7-9.6-4-17.2-4h-19.8L250 40h-26l1.6-9h15.7l1.9-10.2h-15.7l1.7-9h16.1L247.6 0h-32.8l-7 38h-12l7-38h-17.2l-7 38H167l7-38h-17l-7.4 40h-26.2l1.6-9h15.7l2-10.2h-15.8l1.7-9h16.3L146.9 0H44.7L39 31.8 27.3 0H9.6L0 51.8h17l5.8-32.6L34 51.8H95l7.4-40h9.5l-7.4 40h160.1l4.7-25.3 7.5 25.3h17l-7.8-20.6 1.8-.4c3.9-.9 7-2.7 9-5.4 2.2-2.7 3.3-6.2 3.3-10.4 0-5-1.8-8.5-5.5-11zM80.1 40H54l1.7-9H72l1.8-10.3H57.8l1.5-9h26L80 40.1zm200.4-17.4a13.1 13.1 0 0 1-7.6 1.8h-3.3l2.6-14h2.4c2.8 0 4.9.5 6.3 1.5 1.1.7 2.4 2.1 2.4 4.8 0 3.3-1.5 5-2.8 6z" fill="#83ba3b" stroke-width="2.3"/></svg>