<svg id="Capa_1" enable-background="new 0 0 512 512" height="512" viewBox="0 0 512 512" width="512" xmlns="http://www.w3.org/2000/svg"><g><path  fill="#fff"  d="m241 46h30v60h-30z"/><path  fill="#fff"  d="m316 91h60v30h-60z" transform="matrix(.707 -.707 .707 .707 26.387 275.705)"/><path  fill="#fff"  d="m151 76h30v60h-30z" transform="matrix(.707 -.707 .707 .707 -26.333 148.425)"/><path  fill="#fff"  d="m383.275 226c-31.15-37.704-78.167-60-127.275-60s-96.125 22.296-127.275 60h-128.725v180h128.725c31.15 37.704 78.167 60 127.275 60s96.125-22.296 127.275-60h128.725v-180zm-127.275 210c-75.985 0-110.793-58.542-112.5-60h-113.5v-120h113.5c1.829-1.594 34.524-56.894 107.044-59.874l-77.447 77.448 10.606 10.607c14.623 14.623 33.824 21.933 53.033 21.932 18.912-.002 37.82-7.108 52.354-21.287l68.379 105.19c-25.459 28.956-62.662 45.984-101.469 45.984zm226-60h-97.86l-40.249-61.917c3.72.561 7.506.851 11.338.851 20.033 0 38.867-7.802 53.032-21.967l-21.213-21.213c-8.499 8.499-19.8 13.18-31.819 13.18-12.021 0-23.32-4.681-31.82-13.18l-31.819-31.82-23.033 23.033c-13.827 13.828-34.488 16.759-51.216 8.789l71.612-71.613c53.79 13.65 77.082 53.467 79.548 55.856h113.499z"/></g></svg>