<svg xmlns="http://www.w3.org/2000/svg" xmlns:xlink="http://www.w3.org/1999/xlink" viewBox="0 0 229.79 74.2"><g transform="translate(0 -20.35) scale(.81066)"><defs><path id="a" d="M146.6 54.36c-.16 12.75 11.37 19.87 20.05 24.1 8.92 4.34 11.91 7.12 11.88 11-.07 5.94-7.12 8.57-13.71 8.67-11.51.18-18.2-3.1-23.52-5.6l-4.15 19.4c5.34 2.46 15.22 4.61 25.47 4.7 24.06 0 39.8-11.87 39.88-30.28.1-23.37-32.32-24.66-32.1-35.1.08-3.17 3.1-6.55 9.72-7.4 3.28-.44 12.33-.78 22.58 3.95l4.03-18.77c-5.52-2-12.6-3.93-21.43-3.93-22.65 0-38.57 12.03-38.7 29.26m98.82-27.65c-4.4 0-8.1 2.57-9.75 6.5l-34.36 82.05h24.03l4.79-13.22h29.37l2.78 13.22h21.18L264.98 26.7h-19.56m3.36 23.92l6.94 33.25h-19l12.06-33.25M117.46 26.71L98.5 115.26h22.9l18.94-88.55h-22.9m-33.88 0L59.73 86.98l-9.65-51.24c-1.13-5.72-5.6-9.02-10.56-9.02H.54L0 29.29c8 1.73 17.1 4.53 22.6 7.53 3.37 1.83 4.33 3.43 5.44 7.78l18.27 70.66h24.2l37.12-88.55H83.57"/></defs><clipPath id="b"><use xlink:href="#a" overflow="visible" width="100%" height="100%"/></clipPath><linearGradient id="c" gradientUnits="userSpaceOnUse" x1="-1.86" y1="159.22" x2="-1.29" y2="159.22" gradientTransform="scale(447.2655 -447.2655) rotate(20.22 446.35 84.87)"><stop offset="0" stop-color="#212457"/><stop offset="1" stop-color="#294da1"/></linearGradient><path clip-path="url(#b)" d="M-29.68 36.03l279.3-102.86 63.53 172.54-279.3 102.86" fill="url(#c)"/></g></svg>