<svg xmlns="http://www.w3.org/2000/svg" viewBox="0 0 859 205.9"><path d="M758.5 0a100.7 100.7 0 0 1 50 13.2l-9 8-13.8-14-23.5 20.6-14-14.8L705 51.5l27.8 30.3-10.9 9.4 27.4 30.3-10.8 9.4 39.2 43 23.2-21 20.1 22.6c-4 3-8.3 6-13 8.6a100.3 100.3 0 0 1-49.2 12.8c-55 0-99.7-44.2-99.7-98.5A99 99 0 0 1 758.5 0zm-18.2 92.3l23.8-21 21.3 23.5-23.8 21zm17 40.7l23.5-21.3 21.5 23.5-23.8 21.1zm-34-80.7l23.8-21 21.3 23.4-23.8 21.1zM767 41l17.7-15.8 16 17.5-17.7 16zm31.6 72.4l17.7-15.8 16 17.7-17.7 15.8zm15.6 35.6l17.7-15.8 16 17.5-17.7 16zm7.2-81.3l11.8-10.5 10.7 11.6L832 79.4zM806.1 33L818 22.2 828.6 34l-11.8 10.6zm30.3 69.6L848.2 92l10.8 11.6-12 10.6zm-53.1-26.1L801 60.6 817 78l-17.7 15.8z" fill="#036cb5"/><g transform="translate(-65.5 -51.4)"><defs><filter height="90.9" width="104" y="92.3" x="65.5" filterUnits="userSpaceOnUse" id="a"><feColorMatrix values="1 0 0 0 0 0 1 0 0 0 0 0 1 0 0 0 0 0 1 0"/></filter></defs><mask id="b" height="90.9" width="104" y="92.3" x="65.5" maskUnits="userSpaceOnUse"><path fill="#fff" d="M169.5 183.3v-91h-104v91z" filter="url(#a)"/></mask><path mask="url(#b)" fill="#036cb5" d="M94 160.2h1l16.6-67.8h11.3l17.7 67.8h1l13-67.8h14.9l-20.7 90.9H135l-17.3-64h-1l-16.8 64H86.2l-20.7-91h14.3z"/></g><path d="M122.1 93.1h29.2c-.6-13.4-7.1-18.8-14-18.8-7.8 0-13.8 6-15.2 18.8m39.4 24.1v9.8a44.8 44.8 0 0 1-22.5 5.9c-21.5 0-30.3-13.4-30.3-33.6 0-19.5 9.9-33.6 29-33.6 16 0 25.8 10.4 25.8 31.3v4.7h-41.6c0 15.4 6.2 22.2 19.4 22.2 6.9 0 13.2-2.4 20.2-6.7m31.6 5.4c4.1 1.8 8.6 2 11.8 2 9.4 0 16.6-5.8 16.6-26.6 0-16.3-5.9-21.6-14.5-21.6-5 0-8.8 1.5-13.9 4.3v41.9zm.2-51.4c3.8-2 10.3-4.8 17.2-4.8 15.8 0 24.4 11 24.4 31.6 0 24-11.5 35.6-30 35.6-6.8 0-17.2-2.1-24.9-6.3V38l13.3-3.2v36.5zm129-5.3H321l-26 65.9h-8.2l-26-64.4h-1.1v64.4h-11.5v-91h15.4l28.6 71.7h.6L320.2 41h15.9v90.9h-13.8zm70 33.4c0-17.3-7-24.6-15.6-24.6-8.4 0-15.7 7.3-15.7 24.6 0 17.6 6.6 24.6 15.7 24.6 9 0 15.7-7 15.7-24.6m-44.8 0c0-22.5 12.2-33.6 29-33.6 17 0 29.2 11.1 29.2 33.6 0 22-11.6 33.6-29.1 33.6s-29.1-11.7-29.1-33.6m68.3-24.1a65 65 0 0 1 32.5-9.5c15.3 0 21 6 21 19.2v46.4h-13.2V88c0-10.2-5-12-11.5-12a35 35 0 0 0-15.6 4.7v50.8H416V75.2zm81.6 18h29.2c-.6-13.5-7-19-14-19-7.8 0-13.8 6.1-15.2 19m39.5 24v9.8a44.8 44.8 0 0 1-22.6 5.9c-21.4 0-30.3-13.4-30.3-33.6 0-19.5 9.9-33.6 29-33.6 16 0 25.8 10.4 25.8 31.3v4.7h-41.6c0 15.4 6.2 22.2 19.4 22.2a39 39 0 0 0 20.3-6.7m54.9-51.5h13.6l-23 64c-6.5 17.8-14.2 27-28.9 27v-10.5c8.7 0 14-7 17.1-16.4l-24.5-64.1h14l16.4 47.2h.7z" fill="#036cb5"/><path d="M137.8 191v-5.6a30 30 0 0 0 13.5 3.6c3.6 0 6.3-.6 8.2-2a6.1 6.1 0 0 0 2.9-5.3c0-2.2-.8-3.9-2.4-5a44.3 44.3 0 0 0-11.6-5.2 94.7 94.7 0 0 1-4.9-2.2 25.8 25.8 0 0 0-2-1.2 6.7 6.7 0 0 1-1.8-1.3 28.6 28.6 0 0 0-1.3-1.6 5 5 0 0 1-1-1.9 18.9 18.9 0 0 1-.9-4.8 10.9 10.9 0 0 1 4-8.8c2.8-2.2 6.5-3.3 11.2-3.3 4.2 0 8.3.8 12.5 2.3v5.9a27 27 0 0 0-12-3c-2.9 0-5 .6-6.4 1.8a6 6 0 0 0-2 4.8c0 2 .6 3.7 2 4.8 1.4 1 3.9 2.3 7.5 3.6a49.7 49.7 0 0 1 12.7 6.2c2.4 1.8 3.5 4.6 3.5 8.2 0 3.8-1.6 7-4.8 9.4a21.2 21.2 0 0 1-13.1 3.6c-5.1 0-9.7-1-13.8-3zm64.5 2h-6l-.5-3.7c-3.6 3-7.2 4.5-10.9 4.5-3 0-5.4-.8-7-2.5a8.4 8.4 0 0 1-2.5-6.2c0-1.4.2-2.6.7-3.9a11.1 11.1 0 0 1 2.4-3.5 12 12 0 0 1 5-2.8 27.3 27.3 0 0 1 8.2-1h4V172c0-3-.6-4.9-1.6-6-1-1-2.8-1.5-5.3-1.5-3 0-6.8 1.3-11.3 3.8v-5.2a32 32 0 0 1 13.5-3.1c4.2 0 7.2.9 8.8 2.6 1.7 1.8 2.5 4.5 2.5 8zm-6.6-14.7h-3.3c-7 0-10.4 2-10.4 6.2 0 1.5.4 2.6 1.4 3.2.9.7 2 1 3.4 1a11 11 0 0 0 5.2-1.3c1.6-.8 2.9-1.8 3.7-3v-6zm17 27.6v-41.1a22.8 22.8 0 0 1 6.5-3.4 23.4 23.4 0 0 1 7.5-1.3c8.8 0 13.2 5.4 13.2 16.2 0 5.5-1.2 9.8-3.5 12.8-2.2 3-5.5 4.4-9.8 4.4-3 0-5.4-.8-7.4-2.2v14.6zm6.5-39v19.6a8 8 0 0 0 3.2 1.8c1.2.4 2.4.6 3.3.6 2.4 0 4.2-.9 5.5-2.7 1.4-1.8 2-5.1 2-10 0-3.8-.7-6.7-2-8.5a6.4 6.4 0 0 0-5.4-2.7c-2.5 0-4.7.7-6.7 2zm35.8-6.5v32.7h-6.6v-31zm-7.6-9.4c0-1.2.4-2.2 1.3-3.1a4.1 4.1 0 0 1 6 0 4.2 4.2 0 0 1 0 6.1 4.1 4.1 0 0 1-6 0 4.3 4.3 0 0 1-1.3-3zm32.3 38.3c3 0 6.4-1.1 10-3.3v4.9a21.8 21.8 0 0 1-11.2 3c-5.1 0-8.9-1.6-11.3-4.5a19 19 0 0 1-3.7-12.4c0-5.1 1.3-9.2 3.8-12.3 2.5-3 6-4.6 10.6-4.6 4 0 7.2 1.3 9.5 4 2.2 2.7 3.3 6.6 3.3 11.7v2.4H270c0 3.8.8 6.6 2.4 8.4 1.6 1.8 4 2.7 7.3 2.7zm-2-24.9c-2 0-3.6.8-5 2.4-1.3 1.6-2.2 4-2.5 7h14.5c-.2-3.1-1-5.5-2.2-7a6 6 0 0 0-4.8-2.4zm21.4 28.6V165a30.5 30.5 0 0 1 16.2-4.8c3.7 0 6.4.8 8 2.3 1.6 1.6 2.4 4 2.4 7.4V193h-6.6v-21.9c0-2.3-.4-4-1.4-4.7-1-.8-2.4-1.2-4.3-1.2-2.5 0-5 .7-7.7 2.3V193h-6.6zm43.2-31.3h10l-1.6 4.3h-8.4v17c0 4.3 1.8 6.5 5.5 6.5a11 11 0 0 0 4.2-1v4.2a19.6 19.6 0 0 1-7 1.1c-3.3 0-5.6-.9-7-2.7a11 11 0 0 1-2.3-7.2v-26.5l6.6-4.8v9zm23-1.3v32.7h-6.7v-31zm-7.7-9.4c0-1.2.5-2.2 1.3-3.1a4.1 4.1 0 0 1 6 0 4.2 4.2 0 0 1 0 6.1 4.1 4.1 0 0 1-6 0 4.3 4.3 0 0 1-1.3-3zm52.5 11.7v5.1a17 17 0 0 0-9.6-3.2c-1.7 0-3 .3-4 1-1.1.6-1.7 1.6-1.7 3s.6 2.5 1.8 3.3c1.1.7 3 1.6 5.5 2.4a108 108 0 0 1 5.9 2.3c1.1.6 2 1.2 2.5 1.8a9 9 0 0 1 1.6 2.4c.4 1 .7 2.1.7 3.3a8.4 8.4 0 0 1-3.5 7 15.3 15.3 0 0 1-9.5 2.7c-4.4 0-8-1-11-2.8v-5c3.8 2.2 7.2 3.3 10.3 3.3 4.6 0 7-1.5 7-4.6 0-.6-.2-1.2-.5-1.7-.2-.5-.6-1-1-1.2a8.8 8.8 0 0 0-1.7-1.1l-2-1-2.6-.9a57.5 57.5 0 0 1-4.1-1.6 18 18 0 0 1-3-1.9 6.8 6.8 0 0 1-2.3-2.6 8.9 8.9 0 0 1-.7-3.7c0-1.8.5-3.4 1.3-4.6a7.1 7.1 0 0 1 3.3-2.8 18.9 18.9 0 0 1 7-1.5c3.6 0 7 .9 10.3 2.6zm35 30.4h-6l-.4-3.8c-3.7 3-7.3 4.5-11 4.5-3 0-5.3-.8-7-2.5a8.4 8.4 0 0 1-2.5-6.2c0-1.4.2-2.6.7-3.9a11 11 0 0 1 2.4-3.5 12 12 0 0 1 5.1-2.8 27.3 27.3 0 0 1 8.2-1h3.9V172c0-3-.5-4.9-1.6-6-1-1-2.8-1.5-5.3-1.5-3 0-6.8 1.3-11.2 3.8v-5.2a32 32 0 0 1 13.4-3.1c4.3 0 7.2.9 8.9 2.6 1.6 1.8 2.4 4.5 2.4 8V193zm-6.6-14.8h-3.3c-7 0-10.4 2-10.4 6.2 0 1.5.4 2.6 1.4 3.2 1 .7 2 1 3.5 1a11 11 0 0 0 5.1-1.3c1.6-.8 2.9-1.8 3.7-3v-6zm23.2-16.7h10l-1.6 4.4h-8.4v17c0 4.3 1.8 6.5 5.5 6.5a11 11 0 0 0 4.2-1v4.2a19.5 19.5 0 0 1-7 1.1c-3.3 0-5.6-.9-7-2.7a11 11 0 0 1-2.3-7.2v-26.5l6.6-4.8v9z" fill="#b6b6b6"/><path fill="none" d="M-65.5-54h990v300h-990z"/></svg>